<svg aria-hidden="true" style="position: absolute; width: 0px; height: 0px; overflow: hidden;" version="1.1"
     xmlns="http://www.w3.org/2000/svg" xmlns:xlink="http://www.w3.org/1999/xlink">
    <defs>
        <symbol id="user" viewBox="0 0 512 512">
            <path d="M248 8C111 8 0 119 0 256s111 248 248 248 248-111 248-248S385 8 248 8zm0 96c48.6 0 88 39.4 88 88s-39.4 88-88 88-88-39.4-88-88 39.4-88 88-88zm0 344c-58.7 0-111.3-26.6-146.5-68.2 18.8-35.4 55.6-59.8 98.5-59.8 2.4 0 4.8.4 7.1 1.1 13 4.2 26.6 6.9 40.9 6.9 14.3 0 28-2.7 40.9-6.9 2.3-.7 4.7-1.1 7.1-1.1 42.9 0 79.7 24.4 98.5 59.8C359.3 421.4 306.7 448 248 448z"/>
        </symbol>
        <symbol id="mail" viewBox="0 0 64 64">
            <path
                d="M63.125,9.977c-0.902-1.321-2.419-2.194-4.131-2.194H5.006c-1.676,0-3.158,0.842-4.067,2.117l31.16,25.982L63.125,9.977z"/>
            <path
                d="M0.006,14.328v36.889c0,2.75,2.25,5,5,5h53.988c2.75,0,5-2.25,5-5V14.461L32.099,41.09L0.006,14.328z"/>
        </symbol>
        <symbol id="password" viewBox="0 0 512 512">
            <path d="M391,233.9478H121a45.1323,45.1323,0,0,0-45,45v162a45.1323,45.1323,0,0,0,45,45H391a45.1323,45.1323,0,0,0,45-45v-162A45.1323,45.1323,0,0,0,391,233.9478ZM184.123,369.3794a9.8954,9.8954,0,1,1-9.8964,17.1387l-16.33-9.4287v18.8593a9.8965,9.8965,0,0,1-19.793,0V377.0894l-16.33,9.4287a9.8954,9.8954,0,0,1-9.8964-17.1387l16.3344-9.4307-16.3344-9.4306a9.8954,9.8954,0,0,1,9.8964-17.1387l16.33,9.4282V323.9487a9.8965,9.8965,0,0,1,19.793,0v18.8589l16.33-9.4282a9.8954,9.8954,0,0,1,9.8964,17.1387l-16.3344,9.4306Zm108,0a9.8954,9.8954,0,1,1-9.8964,17.1387l-16.33-9.4287v18.8593a9.8965,9.8965,0,0,1-19.793,0V377.0894l-16.33,9.4287a9.8954,9.8954,0,0,1-9.8964-17.1387l16.3344-9.4307-16.3344-9.4306a9.8954,9.8954,0,0,1,9.8964-17.1387l16.33,9.4282V323.9487a9.8965,9.8965,0,0,1,19.793,0v18.8589l16.33-9.4282a9.8954,9.8954,0,0,1,9.8964,17.1387l-16.3344,9.4306Zm108,0a9.8954,9.8954,0,1,1-9.8964,17.1387l-16.33-9.4287v18.8593a9.8965,9.8965,0,0,1-19.793,0V377.0894l-16.33,9.4287a9.8954,9.8954,0,0,1-9.8964-17.1387l16.3344-9.4307-16.3344-9.4306a9.8954,9.8954,0,0,1,9.8964-17.1387l16.33,9.4282V323.9487a9.8965,9.8965,0,0,1,19.793,0v18.8589l16.33-9.4282a9.8954,9.8954,0,0,1,9.8964,17.1387l-16.3344,9.4306Z"/><path d="M157.8965,143.9487a98.1035,98.1035,0,1,1,196.207,0V214.147h19.793V143.9487a117.8965,117.8965,0,0,0-235.793,0V214.147h19.793Z"/>
        </symbol>
        <symbol id="camera" viewBox="0 0 64 64">
            <path d="M51.5 51.5h-39c-2.3 0-4.2-1.9-4.2-4.2V22.2c0-2.3 1.9-4.2 4.2-4.2h8.4c.2 0 .7-.3.8-.5l1.5-3.1c.6-1.1 2-2 3.3-2h11.1c1.3 0 2.7.9 3.3 2l1.5 3.1c.1.2.5.5.8.5h8.4c2.3 0 4.2 1.9 4.2 4.2v25.1c-.1 2.3-2 4.2-4.3 4.2zm-39-30.6c-.8 0-1.4.6-1.4 1.4v25.1c0 .8.6 1.4 1.4 1.4h39c.8 0 1.4-.6 1.4-1.4V22.3c0-.8-.6-1.4-1.4-1.4h-8.4c-1.3 0-2.7-.9-3.3-2l-1.5-3.1c-.1-.2-.5-.5-.8-.5H26.4c-.2 0-.7.3-.8.5l-1.5 3.1c-.6 1.1-2 2-3.3 2h-8.3z"></path><path d="M32 45.9c-6.9 0-12.5-5.6-12.5-12.5S25.1 20.9 32 20.9s12.5 5.6 12.5 12.5S38.9 45.9 32 45.9zm0-22.3c-5.4 0-9.8 4.4-9.8 9.8s4.4 9.8 9.8 9.8 9.8-4.4 9.8-9.8-4.4-9.8-9.8-9.8zm15.3 0c0 .8-.6 1.4-1.4 1.4s-1.4-.6-1.4-1.4.6-1.4 1.4-1.4 1.4.7 1.4 1.4M13.9 15.3h5.6v1.4h-5.6z"></path><path d="M32 27.8v-1.4c-3.8 0-7 3.1-7 7h1.4c0-3.1 2.5-5.6 5.6-5.6"></path>
        </symbol>
        <symbol id="google" viewBox="0 0 24 24">
            <path d="M19.76 10.77L19.67 10.42H12.23V13.58H16.68C16.4317 14.5443 15.8672 15.3974 15.0767 16.0029C14.2863 16.6084 13.3156 16.9313 12.32 16.92C11.0208 16.9093 9.77254 16.4135 8.81999 15.53C8.35174 15.0685 7.97912 14.5191 7.72344 13.9134C7.46777 13.3077 7.33407 12.6575 7.33 12C7.34511 10.6795 7.86792 9.41544 8.79 8.47002C9.7291 7.58038 10.9764 7.08932 12.27 7.10002C13.3779 7.10855 14.4446 7.52101 15.27 8.26002L17.47 6.00002C16.02 4.70638 14.1432 3.9941 12.2 4.00002C11.131 3.99367 10.0713 4.19793 9.08127 4.60115C8.09125 5.00436 7.19034 5.59863 6.43 6.35002C4.98369 7.8523 4.16827 9.85182 4.15152 11.9371C4.13478 14.0224 4.918 16.0347 6.34 17.56C7.12784 18.3449 8.06422 18.965 9.09441 19.3839C10.1246 19.8029 11.2279 20.0123 12.34 20C13.3484 20.0075 14.3479 19.8102 15.2779 19.42C16.2078 19.0298 17.0488 18.4549 17.75 17.73C19.1259 16.2171 19.8702 14.2347 19.83 12.19C19.8408 11.7156 19.8174 11.2411 19.76 10.77Z"/>
        </symbol>
        <symbol id="github" viewBox="0 0 20 20">
            <g id="Page-1" stroke="none" stroke-width="1" fill-rule="evenodd">
                <g id="Dribbble-Light-Preview" transform="translate(-140.000000, -7559.000000)">
                    <g id="icons" transform="translate(56.000000, 160.000000)">
                        <path d="M94,7399 C99.523,7399 104,7403.59 104,7409.253 C104,7413.782 101.138,7417.624 97.167,7418.981 C96.66,7419.082 96.48,7418.762 96.48,7418.489 C96.48,7418.151 96.492,7417.047 96.492,7415.675 C96.492,7414.719 96.172,7414.095 95.813,7413.777 C98.04,7413.523 100.38,7412.656 100.38,7408.718 C100.38,7407.598 99.992,7406.684 99.35,7405.966 C99.454,7405.707 99.797,7404.664 99.252,7403.252 C99.252,7403.252 98.414,7402.977 96.505,7404.303 C95.706,7404.076 94.85,7403.962 94,7403.958 C93.15,7403.962 92.295,7404.076 91.497,7404.303 C89.586,7402.977 88.746,7403.252 88.746,7403.252 C88.203,7404.664 88.546,7405.707 88.649,7405.966 C88.01,7406.684 87.619,7407.598 87.619,7408.718 C87.619,7412.646 89.954,7413.526 92.175,7413.785 C91.889,7414.041 91.63,7414.493 91.54,7415.156 C90.97,7415.418 89.522,7415.871 88.63,7414.304 C88.63,7414.304 88.101,7413.319 87.097,7413.247 C87.097,7413.247 86.122,7413.234 87.029,7413.87 C87.029,7413.87 87.684,7414.185 88.139,7415.37 C88.139,7415.37 88.726,7417.2 91.508,7416.58 C91.513,7417.437 91.522,7418.245 91.522,7418.489 C91.522,7418.76 91.338,7419.077 90.839,7418.982 C86.865,7417.627 84,7413.783 84,7409.253 C84,7403.59 88.478,7399 94,7399">
                        </path>
                    </g>
                </g>
            </g>
        </symbol>
    </defs>
</svg>
