<svg aria-hidden="true" style="position: absolute; width: 0px; height: 0px; overflow: hidden;" version="1.1" xmlns="http://www.w3.org/2000/svg" xmlns:xlink="http://www.w3.org/1999/xlink">
<defs>
<symbol id="user" viewBox="0 0 24 24" width="24px" height="24px">
    <path d="M12 12c2.21 0 4-1.79 4-4s-1.79-4-4-4-4 1.79-4 4 1.79 4 4 4zm0 2c-2.67 0-8 1.34-8 4v1c0 .55.45 1 1 1h14c.55 0 1-.45 1-1v-1c0-2.66-5.33-4-8-4z"></path>
</symbol>
<symbol id="mail" viewBox="0 0 64 64">
    <path d="M63.125,9.977c-0.902-1.321-2.419-2.194-4.131-2.194H5.006c-1.676,0-3.158,0.842-4.067,2.117l31.16,25.982L63.125,9.977z"/><path d="M0.006,14.328v36.889c0,2.75,2.25,5,5,5h53.988c2.75,0,5-2.25,5-5V14.461L32.099,41.09L0.006,14.328z"/>
</symbol>
<symbol id="password" viewBox="0 0 30 30">
    <path d="M 15 2 C 11.145666 2 8 5.1456661 8 9 L 8 11 L 6 11 C 4.895 11 4 11.895 4 13 L 4 25 C 4 26.105 4.895 27 6 27 L 24 27 C 25.105 27 26 26.105 26 25 L 26 13 C 26 11.895 25.105 11 24 11 L 22 11 L 22 9 C 22 5.2715823 19.036581 2.2685653 15.355469 2.0722656 A 1.0001 1.0001 0 0 0 15 2 z M 15 4 C 17.773666 4 20 6.2263339 20 9 L 20 11 L 10 11 L 10 9 C 10 6.2263339 12.226334 4 15 4 z"></path>
</symbol>
</defs>
</svg>